<svg xmlns="http://www.w3.org/2000/svg" width="960" height="540" viewBox="0 0 960 540"><rect width="100%" height="100%" fill="#f7f7f5" /><rect x="28" y="28" width="904" height="484" rx="18" fill="#ffffff" stroke="#dfdfd8" stroke-width="1.5" /><text x="50%" y="62" text-anchor="middle" font-family="Helvetica, Arial, sans-serif" font-size="28" fill="#1f2933">Champion Balanced Accuracy</text><text x="50%" y="88" text-anchor="middle" font-family="Helvetica, Arial, sans-serif" font-size="14" fill="#52606d">Latest champion: 0.971799 (ann_stack_raw_v1)</text><line x1="90" y1="70" x2="90" y2="450" stroke="#6b7280" stroke-width="1.5" /><line x1="90" y1="450" x2="920" y2="450" stroke="#6b7280" stroke-width="1.5" /><line x1="90" y1="450.0" x2="920" y2="450.0" stroke="#d9d9d3" stroke-width="1" /><line x1="90" y1="355.0" x2="920" y2="355.0" stroke="#d9d9d3" stroke-width="1" /><line x1="90" y1="260.0" x2="920" y2="260.0" stroke="#d9d9d3" stroke-width="1" /><line x1="90" y1="165.0" x2="920" y2="165.0" stroke="#d9d9d3" stroke-width="1" /><line x1="90" y1="70.0" x2="920" y2="70.0" stroke="#d9d9d3" stroke-width="1" /><text x="78" y="454.0" text-anchor="end" font-family="Helvetica, Arial, sans-serif" font-size="11" fill="#555">0.963539</text><text x="78" y="359.0" text-anchor="end" font-family="Helvetica, Arial, sans-serif" font-size="11" fill="#555">0.968735</text><text x="78" y="264.0" text-anchor="end" font-family="Helvetica, Arial, sans-serif" font-size="11" fill="#555">0.973931</text><text x="78" y="169.0" text-anchor="end" font-family="Helvetica, Arial, sans-serif" font-size="11" fill="#555">0.979128</text><text x="78" y="74.0" text-anchor="end" font-family="Helvetica, Arial, sans-serif" font-size="11" fill="#555">0.984324</text><line x1="90" y1="133.3" x2="920" y2="133.3" stroke="#0f766e" stroke-width="2" stroke-dasharray="8 8" /><text x="920" y="125.3" text-anchor="end" font-family="Helvetica, Arial, sans-serif" font-size="12" fill="#0f766e">target 0.98086</text><polyline fill="none" stroke="#d9480f" stroke-width="3" points="90.0,386.7 366.7,359.6 643.3,333.9 920.0,299.0" /><circle cx="90.0" cy="386.7" r="5.5" fill="#d9480f" stroke="#ffffff" stroke-width="2" /><circle cx="366.7" cy="359.6" r="5.5" fill="#d9480f" stroke="#ffffff" stroke-width="2" /><circle cx="643.3" cy="333.9" r="5.5" fill="#d9480f" stroke="#ffffff" stroke-width="2" /><circle cx="920.0" cy="299.0" r="5.5" fill="#d9480f" stroke="#ffffff" stroke-width="2" /><text x="90.0" y="372.7" text-anchor="middle" font-family="Helvetica, Arial, sans-serif" font-size="12" fill="#333">0.967003</text><text x="366.7" y="345.6" text-anchor="middle" font-family="Helvetica, Arial, sans-serif" font-size="12" fill="#333">0.968485</text><text x="643.3" y="319.9" text-anchor="middle" font-family="Helvetica, Arial, sans-serif" font-size="12" fill="#333">0.969889</text><text x="920.0" y="285.0" text-anchor="middle" font-family="Helvetica, Arial, sans-serif" font-size="12" fill="#333">0.971799</text><text x="90.0" y="495" text-anchor="middle" font-family="Helvetica, Arial, sans-serif" font-size="11" fill="#555">baseline_setup</text><text x="366.7" y="495" text-anchor="middle" font-family="Helvetica, Arial, sans-serif" font-size="11" fill="#555">refined_weight_search_v1</text><text x="643.3" y="495" text-anchor="middle" font-family="Helvetica, Arial, sans-serif" font-size="11" fill="#555">class_scale_search_v1</text><text x="920.0" y="495" text-anchor="middle" font-family="Helvetica, Arial, sans-serif" font-size="11" fill="#555">ann_stack_raw_v1</text><text x="50%" y="515" text-anchor="middle" font-family="Helvetica, Arial, sans-serif" font-size="12" fill="#52606d">Strict champion improvements from results.tsv</text><text x="24" y="24" font-family="Helvetica, Arial, sans-serif" font-size="1" fill="transparent">champion-score-chart</text></svg>